<svg width="1440" height="1440" viewBox="0 0 1440 1440" fill="none" xmlns="http://www.w3.org/2000/svg">
<path d="M-948.385 405.142C-921.699 384.249 -812.155 524.168 -785.455 503.265C-758.755 482.361 -868.314 342.453 -841.614 321.55C-814.915 300.646 -705.384 440.576 -678.684 419.673C-651.985 398.769 -761.544 258.861 -734.844 237.957C-708.144 217.054 -598.614 356.984 -571.914 336.08C-545.214 315.177 -654.773 175.269 -628.073 154.365C-601.374 133.462 -491.843 273.392 -465.144 252.488C-438.444 231.585 -548.003 91.6767 -521.317 70.7843C-494.632 49.8919 -385.073 189.8 -358.33 168.862C-331.588 147.925 -441.189 8.05101 -414.504 -12.8414C-387.819 -33.7339 -278.245 106.163 -251.617 85.3151C-224.989 64.4675 -334.476 -75.4964 -307.705 -96.456C-280.934 -117.416 -171.475 22.5706 -144.789 1.67816C-118.104 -19.2143 -227.634 -159.144 -200.949 -180.037C-174.263 -200.929 -64.7187 -61.0103 -38.0189 -81.9139C-11.3192 -102.818 -120.878 -242.725 -94.1926 -263.618C-67.5072 -284.51 42.0518 -144.603 68.7516 -165.506C95.4513 -186.41 -14.1077 -326.318 12.5921 -347.221C39.2919 -368.125 148.822 -228.195 175.522 -249.098C202.222 -270.002 92.6628 -409.91 119.363 -430.813C146.062 -451.717 255.593 -311.787 282.292 -332.69C308.992 -353.594 199.433 -493.502 226.133 -514.406C252.833 -535.309 362.363 -395.379 389.063 -416.283C415.763 -437.186 306.218 -577.105 332.903 -597.998C359.589 -618.89 469.148 -478.982 495.833 -499.875C522.519 -520.767 412.988 -660.697 439.674 -681.59C466.359 -702.482 575.918 -562.574 602.618 -583.478C629.318 -604.382 519.759 -744.29 546.459 -765.193C573.158 -786.097 682.703 -646.178 709.389 -667.07C736.074 -687.963 626.544 -827.893 653.243 -848.797C679.943 -869.7 789.488 -729.781 816.188 -750.685C842.887 -771.588 733.343 -911.507 760.028 -932.4M-723.544 692.327C-696.859 671.434 -587.314 811.353 -560.614 790.45C-533.914 769.546 -643.473 629.638 -616.774 608.734C-590.074 587.831 -480.543 727.761 -453.844 706.858C-427.144 685.954 -536.703 546.046 -510.003 525.142C-483.303 504.239 -373.773 644.169 -347.073 623.265C-320.373 602.362 -429.932 462.454 -403.233 441.55C-376.533 420.647 -267.003 560.577 -240.303 539.673C-213.603 518.77 -323.162 378.862 -296.477 357.969C-269.791 337.077 -160.232 476.985 -133.489 456.047C-106.747 435.11 -216.349 295.236 -189.663 274.344C-162.978 253.451 -53.4044 393.348 -26.7762 372.5C-0.147926 351.652 -109.635 211.689 -82.8641 190.729C-56.0929 169.769 53.3661 309.756 80.0515 288.863C106.737 267.971 -2.79343 128.041 23.892 107.148C50.5775 86.2556 160.122 226.175 186.822 205.271C213.522 184.367 103.963 44.4595 130.648 23.5671C157.334 2.67464 266.893 142.582 293.592 121.679C320.292 100.775 210.733 -39.1326 237.433 -60.0363C264.133 -80.9399 373.663 58.9903 400.363 38.0867C427.063 17.183 317.504 -122.725 344.203 -143.628C370.903 -164.532 480.433 -24.6018 507.133 -45.5054C533.833 -66.4091 424.274 -206.317 450.974 -227.221C477.674 -248.124 587.204 -108.194 613.904 -129.098C640.603 -150.001 531.059 -289.92 557.744 -310.813C584.43 -331.705 693.989 -191.797 720.674 -212.69C747.36 -233.582 637.829 -373.512 664.515 -394.405C691.2 -415.297 800.759 -275.39 827.459 -296.293C854.159 -317.197 744.6 -457.105 771.299 -478.008C797.999 -498.912 907.544 -358.993 934.229 -379.885C960.915 -400.778 851.384 -540.708 878.084 -561.612C904.784 -582.515 1014.33 -442.596 1041.03 -463.5C1067.73 -484.404 958.183 -624.322 984.869 -645.215M-328.568 1196.82C-301.882 1175.93 -192.338 1315.85 -165.638 1294.94C-138.938 1274.04 -248.497 1134.13 -221.797 1113.23C-195.098 1092.32 -85.5672 1232.25 -58.8674 1211.35C-32.1677 1190.45 -141.727 1050.54 -115.027 1029.64C-88.3271 1008.73 21.2033 1148.66 47.903 1127.76C74.6028 1106.86 -34.9562 966.948 -8.25641 946.044C18.4434 925.14 127.974 1065.07 154.673 1044.17C181.373 1023.26 71.8143 883.356 98.4998 862.463C125.185 841.571 234.744 981.478 261.487 960.541C288.229 939.604 178.628 799.73 205.313 778.837C231.999 757.945 341.572 897.842 368.2 876.994C394.828 856.146 285.341 716.182 312.112 695.223C338.883 674.263 448.342 814.249 475.028 793.357C501.713 772.464 392.183 632.534 418.868 611.642C445.554 590.749 555.098 730.669 581.798 709.765C608.498 688.861 498.939 548.953 525.624 528.061C552.31 507.168 661.869 647.076 688.569 626.173C715.268 605.269 605.709 465.361 632.409 444.458C659.109 423.554 768.639 563.484 795.339 542.581C822.039 521.677 712.48 381.769 739.18 360.865C765.879 339.962 875.41 479.892 902.109 458.988C928.809 438.085 819.25 298.177 845.95 277.273C872.65 256.37 982.18 396.3 1008.88 375.396C1035.58 354.493 926.035 214.573 952.72 193.681C979.406 172.789 1088.96 312.697 1115.65 291.804C1142.34 270.912 1032.81 130.981 1059.49 110.089C1086.18 89.1965 1195.74 229.104 1222.44 208.201C1249.13 187.297 1139.58 47.3892 1166.28 26.4855C1192.98 5.5819 1302.52 145.501 1329.21 124.609C1355.89 103.716 1246.36 -36.214 1273.06 -57.1177C1299.76 -78.0213 1409.3 61.8976 1436 40.994C1462.7 20.0903 1353.16 -119.829 1379.85 -140.721M236.544 1918.62C263.23 1897.73 372.774 2037.65 399.474 2016.75C426.174 1995.84 316.615 1855.94 343.315 1835.03C370.014 1814.13 479.545 1954.06 506.244 1933.16C532.944 1912.25 423.385 1772.34 450.085 1751.44C476.785 1730.54 586.315 1870.47 613.015 1849.56C639.715 1828.66 530.156 1688.75 556.855 1667.85C583.555 1646.94 693.086 1786.87 719.785 1765.97C746.485 1745.07 636.926 1605.16 663.612 1584.27C690.297 1563.37 799.856 1703.28 826.599 1682.35C853.341 1661.41 743.739 1521.53 770.425 1500.64C797.11 1479.75 906.684 1619.65 933.312 1598.8C959.94 1577.95 850.453 1437.99 877.224 1417.03C903.995 1396.07 1013.45 1536.05 1040.14 1515.16C1066.82 1494.27 957.295 1354.34 983.98 1333.45C1010.67 1312.55 1120.21 1452.47 1146.91 1431.57C1173.61 1410.67 1064.05 1270.76 1090.74 1249.86C1117.42 1228.97 1226.98 1368.88 1253.68 1347.98C1280.38 1327.07 1170.82 1187.17 1197.52 1166.26C1224.22 1145.36 1333.75 1285.29 1360.45 1264.38C1387.15 1243.48 1277.59 1103.57 1304.29 1082.67C1330.99 1061.77 1440.52 1201.7 1467.22 1180.79C1493.92 1159.89 1384.36 1019.98 1411.06 999.077C1437.76 978.174 1547.29 1118.1 1573.99 1097.2C1600.69 1076.3 1491.15 936.378 1517.83 915.485C1544.52 894.593 1654.08 1034.5 1680.76 1013.61C1707.45 992.716 1597.92 852.786 1624.6 831.893C1651.29 811.001 1760.85 950.908 1787.55 930.005C1814.25 909.101 1704.69 769.193 1731.39 748.29C1758.09 727.386 1867.63 867.305 1894.32 846.413C1921 825.52 1811.47 685.59 1838.17 664.686C1864.87 643.783 1974.42 783.702 2001.12 762.798C2027.82 741.894 1918.27 601.975 1944.96 581.083M-838.839 545.061C-812.154 524.168 -702.609 664.087 -675.909 643.184C-649.21 622.28 -758.769 482.372 -732.069 461.469C-705.369 440.565 -595.839 580.495 -569.139 559.592C-542.439 538.688 -651.998 398.78 -625.298 377.876C-598.599 356.973 -489.068 496.903 -462.369 475.999C-435.669 455.096 -545.228 315.188 -518.528 294.284C-491.828 273.381 -382.298 413.311 -355.598 392.407C-328.898 371.504 -438.457 231.596 -411.772 210.703C-385.086 189.811 -275.527 329.719 -248.785 308.781C-222.042 287.844 -331.644 147.97 -304.958 127.078C-278.273 106.185 -168.7 246.082 -142.071 225.234C-115.443 204.386 -224.931 64.4226 -198.159 43.463C-171.388 22.5034 -61.9293 162.49 -35.2438 141.597C-8.55838 120.705 -118.089 -19.2255 -91.4033 -40.118C-64.7178 -61.0104 44.8268 78.9086 71.5266 58.005C98.2263 37.1014 -11.3326 -102.806 15.3528 -123.699C42.0383 -144.591 151.597 -4.68352 178.297 -25.5872C204.997 -46.4908 95.4378 -186.399 122.138 -207.302C148.837 -228.206 258.368 -88.2757 285.068 -109.179C311.767 -130.083 202.208 -269.991 228.908 -290.894C255.608 -311.798 365.138 -171.868 391.838 -192.771C418.538 -213.675 308.979 -353.583 335.679 -374.487C362.378 -395.39 471.909 -255.46 498.608 -276.364C525.308 -297.267 415.764 -437.186 442.449 -458.079C469.134 -478.971 578.693 -339.063 605.379 -359.956C632.064 -380.848 522.534 -520.778 549.219 -541.671C575.905 -562.563 685.464 -422.656 712.164 -443.559C738.863 -464.463 629.304 -604.371 656.004 -625.274C682.704 -646.178 792.249 -506.259 818.934 -527.151C845.619 -548.044 736.089 -687.974 762.789 -708.878C789.489 -729.781 899.033 -589.862 925.733 -610.766C952.433 -631.67 842.888 -771.588 869.574 -792.481M-443.864 1049.56C-417.179 1028.66 -307.634 1168.58 -280.934 1147.68C-254.234 1126.77 -363.793 986.867 -337.094 965.963C-310.394 945.059 -200.863 1084.99 -174.164 1064.09C-147.464 1043.18 -257.023 903.275 -230.323 882.371C-203.623 861.467 -94.0929 1001.4 -67.3932 980.494C-40.6934 959.59 -150.252 819.682 -123.553 798.779C-96.8529 777.875 12.6775 917.805 39.3773 896.902C66.077 875.998 -43.482 736.09 -16.7965 715.198C9.88895 694.305 119.448 834.213 146.191 813.276C172.933 792.339 63.3314 652.465 90.0168 631.572C116.702 610.68 226.276 750.576 252.904 729.729C279.532 708.881 170.045 568.917 196.816 547.958C223.587 526.998 333.046 666.984 359.731 646.092C386.417 625.199 276.887 485.269 303.572 464.377C330.257 443.484 439.802 583.403 466.502 562.5C493.202 541.596 383.643 401.688 410.328 380.796C437.014 359.903 546.573 499.811 573.272 478.907C599.972 458.004 490.413 318.096 517.113 297.192C543.813 276.289 653.343 416.219 680.043 395.315C706.742 374.412 597.184 234.504 623.883 213.6C650.583 192.696 760.113 332.627 786.813 311.723C813.513 290.82 703.954 150.912 730.654 130.008C757.354 109.104 866.884 249.035 893.584 228.131C920.283 207.227 810.739 67.3083 837.424 46.4158C864.11 25.5234 973.669 165.431 1000.35 144.539C1027.04 123.646 917.509 -16.2838 944.195 -37.1763C970.88 -58.0687 1080.44 81.8391 1107.14 60.9354C1133.84 40.0318 1024.28 -99.8761 1050.98 -120.78C1077.68 -141.683 1187.22 -1.76424 1213.91 -22.6567C1240.59 -43.5491 1131.06 -183.479 1157.76 -204.383C1184.46 -225.287 1294.01 -85.3677 1320.71 -106.271C1347.41 -127.175 1237.86 -267.094 1264.55 -287.986M121.248 1771.36C147.933 1750.47 257.478 1890.39 284.178 1869.48C310.877 1848.58 201.319 1708.67 228.018 1687.77C254.718 1666.86 364.248 1806.8 390.948 1785.89C417.648 1764.99 308.089 1625.08 334.789 1604.18C361.488 1583.27 471.019 1723.2 497.719 1702.3C524.418 1681.4 414.859 1541.49 441.559 1520.58C468.259 1499.68 577.789 1639.61 604.489 1618.71C631.189 1597.8 521.63 1457.9 548.315 1437C575.001 1416.11 684.56 1556.02 711.302 1535.08C738.045 1514.14 628.443 1374.27 655.129 1353.38C681.814 1332.49 791.387 1472.38 818.016 1451.53C844.644 1430.69 735.156 1290.72 761.928 1269.76C788.699 1248.8 898.158 1388.79 924.843 1367.9C951.529 1347 841.998 1207.07 868.684 1186.18C895.369 1165.29 1004.91 1305.21 1031.61 1284.31C1058.31 1263.4 948.754 1123.49 975.44 1102.6C1002.13 1081.71 1111.68 1221.62 1138.38 1200.71C1165.08 1179.81 1055.52 1039.9 1082.22 1019C1108.92 998.094 1218.45 1138.02 1245.15 1117.12C1271.85 1096.22 1162.3 956.309 1189 935.406C1215.69 914.502 1325.23 1054.43 1351.93 1033.53C1378.62 1012.63 1269.07 872.717 1295.77 851.813C1322.47 830.91 1432 970.84 1458.7 949.937C1485.4 929.033 1375.85 789.114 1402.54 768.221C1429.22 747.329 1538.78 887.237 1565.47 866.344C1592.15 845.452 1482.62 705.522 1509.31 684.629C1535.99 663.737 1645.55 803.645 1672.25 782.741C1698.95 761.837 1589.39 621.93 1616.09 601.026C1642.79 580.122 1752.34 720.041 1779.02 699.149C1805.71 678.256 1696.18 538.326 1722.88 517.423C1749.58 496.519 1859.12 636.438 1885.82 615.534C1912.52 594.631 1802.98 454.712 1829.66 433.819M-613.999 832.246C-587.314 811.353 -477.769 951.272 -451.069 930.369C-424.369 909.465 -533.928 769.557 -507.229 748.654C-480.529 727.75 -370.998 867.68 -344.299 846.777C-317.599 825.873 -427.158 685.965 -400.458 665.061C-373.758 644.158 -264.228 784.088 -237.528 763.184C-210.828 742.281 -320.387 602.373 -293.688 581.469C-266.988 560.566 -157.458 700.496 -130.758 679.592C-104.058 658.689 -213.617 518.781 -186.932 497.888C-160.246 476.996 -50.6871 616.904 -23.9445 595.967C2.79821 575.029 -106.804 435.155 -80.1182 414.263C-53.4328 393.37 56.1405 533.267 82.7688 512.419C109.397 491.572 -0.0904179 351.608 26.6808 330.648C53.4521 309.688 162.911 449.675 189.596 428.782C216.282 407.89 106.752 267.96 133.437 247.067C160.122 226.175 269.667 366.094 296.367 345.19C323.067 324.286 213.508 184.379 240.193 163.486C266.879 142.594 376.438 282.502 403.137 261.598C429.837 240.694 320.278 100.786 346.978 79.8828C373.678 58.9792 483.208 198.909 509.908 178.006C536.607 157.102 427.049 17.1943 453.748 -3.70935C480.448 -24.613 589.978 115.317 616.678 94.4137C643.378 73.5101 533.819 -66.3979 560.519 -87.3016C587.219 -108.205 696.749 31.7251 723.449 10.8215C750.148 -10.0822 640.604 -150.001 667.289 -170.894C693.975 -191.786 803.534 -51.8783 830.219 -72.7708C856.905 -93.6632 747.374 -233.593 774.06 -254.486C800.745 -275.378 910.304 -135.47 937.004 -156.374C963.704 -177.278 854.145 -317.186 880.844 -338.089C907.544 -358.993 1017.09 -219.074 1043.77 -239.966C1070.46 -260.859 960.929 -400.789 987.629 -421.692C1014.33 -442.596 1123.87 -302.677 1150.57 -323.581C1177.27 -344.484 1067.73 -484.403 1094.41 -505.296M-48.8872 1554.05C-22.2017 1533.16 87.3428 1673.08 114.043 1652.17C140.742 1631.27 31.1835 1491.36 57.8832 1470.46C84.583 1449.55 194.113 1589.48 220.813 1568.58C247.513 1547.68 137.954 1407.77 164.654 1386.86C191.353 1365.96 300.884 1505.89 327.583 1484.99C354.283 1464.08 244.724 1324.18 271.424 1303.27C298.124 1282.37 407.654 1422.3 434.354 1401.4C461.054 1380.49 351.495 1240.58 378.18 1219.69C404.866 1198.8 514.425 1338.71 541.167 1317.77C567.91 1296.83 458.308 1156.96 484.994 1136.07C511.679 1115.17 621.252 1255.07 647.881 1234.22C674.509 1213.37 565.021 1073.41 591.793 1052.45C618.564 1031.49 728.023 1171.48 754.708 1150.59C781.394 1129.69 671.863 989.763 698.549 968.87C725.234 947.978 834.779 1087.9 861.479 1066.99C888.178 1046.09 778.619 906.182 805.305 885.289C831.99 864.397 941.549 1004.3 968.249 983.401C994.949 962.497 885.39 822.59 912.09 801.686C938.789 780.783 1048.32 920.713 1075.02 899.809C1101.72 878.905 992.16 738.998 1018.86 718.094C1045.56 697.19 1155.09 837.121 1181.79 816.217C1208.49 795.313 1098.93 655.405 1125.63 634.502C1152.33 613.598 1261.86 753.528 1288.56 732.625C1315.26 711.721 1205.72 571.802 1232.4 550.91C1259.09 530.017 1368.65 669.925 1395.33 649.033C1422.02 628.14 1312.49 488.21 1339.17 467.318C1365.86 446.425 1475.42 586.333 1502.12 565.429C1528.82 544.526 1419.26 404.618 1445.96 383.714C1472.66 362.81 1582.2 502.729 1608.89 481.837C1635.57 460.945 1526.04 321.014 1552.74 300.111C1579.44 279.207 1688.99 419.126 1715.69 398.222C1742.38 377.319 1632.84 237.4 1659.53 216.507M-219.023 1336.74C-192.337 1315.85 -82.7927 1455.77 -56.0929 1434.86C-29.3931 1413.96 -138.952 1274.05 -112.252 1253.15C-85.5526 1232.24 23.9778 1372.17 50.6776 1351.27C77.3773 1330.37 -32.1816 1190.46 -5.48187 1169.56C21.2179 1148.65 130.748 1288.58 157.448 1267.68C184.148 1246.77 74.5888 1106.87 101.289 1085.96C127.988 1065.06 237.519 1204.99 264.219 1184.09C290.918 1163.18 181.359 1023.27 208.045 1002.38C234.73 981.49 344.289 1121.4 371.032 1100.46C397.775 1079.52 288.173 939.649 314.858 918.756C341.543 897.864 451.117 1037.76 477.745 1016.91C504.373 996.065 394.886 856.101 421.657 835.142C448.428 814.182 557.887 954.168 584.573 933.276C611.258 912.384 501.728 772.453 528.413 751.561C555.099 730.668 664.643 870.588 691.343 849.684C718.043 828.78 608.484 688.872 635.169 667.98C661.855 647.088 771.414 786.995 798.114 766.092C824.813 745.188 715.254 605.28 741.954 584.377C768.654 563.473 878.184 703.403 904.884 682.5C931.584 661.596 822.025 521.688 848.725 500.784C875.424 479.881 984.955 619.811 1011.65 598.907C1038.35 578.004 928.795 438.096 955.495 417.192C982.195 396.289 1091.73 536.219 1118.42 515.315C1145.12 494.412 1035.58 354.493 1062.27 333.6C1088.95 312.708 1198.51 452.616 1225.2 431.723C1251.88 410.831 1142.35 270.9 1169.04 250.008C1195.72 229.116 1305.28 369.023 1331.98 348.12C1358.68 327.216 1249.12 187.308 1275.82 166.405C1302.52 145.501 1412.07 285.42 1438.75 264.528C1465.44 243.635 1355.91 103.705 1382.61 82.8014C1409.3 61.8978 1518.85 201.817 1545.55 180.913C1572.25 160.009 1462.7 20.0904 1489.39 -0.802002M346.089 2058.54C372.774 2037.65 482.319 2177.57 509.018 2156.67C535.718 2135.76 426.159 1995.86 452.859 1974.95C479.559 1954.05 589.089 2093.98 615.789 2073.07C642.489 2052.17 532.93 1912.26 559.63 1891.36C586.329 1870.46 695.86 2010.39 722.559 1989.48C749.259 1968.58 639.7 1828.67 666.4 1807.77C693.1 1786.86 802.63 1926.79 829.33 1905.89C856.03 1884.99 746.471 1745.08 773.156 1724.19C799.841 1703.29 909.401 1843.2 936.143 1822.26C962.886 1801.33 853.284 1661.45 879.969 1640.56C906.655 1619.67 1016.23 1759.57 1042.86 1738.72C1069.48 1717.87 959.997 1577.91 986.768 1556.95C1013.54 1535.99 1123 1675.97 1149.68 1655.08C1176.37 1634.19 1066.84 1494.26 1093.52 1473.37C1120.21 1452.47 1229.75 1592.39 1256.45 1571.49C1283.15 1550.58 1173.6 1410.68 1200.28 1389.78C1226.97 1368.89 1336.53 1508.8 1363.22 1487.9C1389.92 1466.99 1280.37 1327.08 1307.07 1306.18C1333.77 1285.28 1443.3 1425.21 1470 1404.3C1496.7 1383.4 1387.14 1243.49 1413.84 1222.59C1440.54 1201.69 1550.07 1341.62 1576.77 1320.71C1603.47 1299.81 1493.91 1159.9 1520.61 1139C1547.31 1118.09 1656.84 1258.02 1683.54 1237.12C1710.24 1216.22 1600.69 1076.3 1627.38 1055.4C1654.06 1034.51 1763.62 1174.42 1790.31 1153.53C1816.99 1132.64 1707.46 992.705 1734.15 971.813C1760.83 950.92 1870.39 1090.83 1897.09 1069.92C1923.79 1049.02 1814.23 909.113 1840.93 888.209C1867.63 867.306 1977.18 1007.22 2003.86 986.332C2030.55 965.44 1921.02 825.51 1947.72 804.606C1974.42 783.702 2083.96 923.621 2110.66 902.718C2137.36 881.814 2027.82 741.895 2054.5 721.003M-893.679 475.016C-866.994 454.124 -757.449 594.043 -730.749 573.139C-704.049 552.235 -813.608 412.327 -786.909 391.424C-760.209 370.52 -650.679 510.451 -623.979 489.547C-597.279 468.643 -706.838 328.735 -680.138 307.832C-653.438 286.928 -543.908 426.858 -517.208 405.955C-490.509 385.051 -600.068 245.143 -573.368 224.24C-546.668 203.336 -437.138 343.266 -410.438 322.363C-383.738 301.459 -493.297 161.551 -466.612 140.659C-439.926 119.766 -330.367 259.674 -303.625 238.737C-276.882 217.799 -386.484 77.9253 -359.798 57.0328C-333.113 36.1404 -223.54 176.037 -196.911 155.189C-170.283 134.342 -279.77 -5.62211 -252.999 -26.5817C-226.228 -47.5413 -116.769 92.4449 -90.0836 71.5524C-63.3982 50.66 -172.929 -89.2702 -146.243 -110.163C-119.558 -131.055 -10.013 8.86396 16.6868 -12.0397C43.3865 -32.9433 -66.1724 -172.851 -39.4869 -193.744C-12.8015 -214.636 96.7575 -74.7283 123.457 -95.6319C150.157 -116.536 40.598 -256.443 67.2978 -277.347C93.9976 -298.251 203.528 -158.32 230.228 -179.224C256.927 -200.128 147.368 -340.036 174.068 -360.939C200.768 -381.843 310.298 -241.912 336.998 -262.816C363.698 -283.72 254.139 -423.628 280.839 -444.531C307.539 -465.435 417.069 -325.505 443.769 -346.408C470.468 -367.312 360.924 -507.231 387.609 -528.123C414.295 -549.016 523.854 -409.108 550.539 -430.001C577.225 -450.893 467.694 -590.823 494.38 -611.716C521.065 -632.608 630.624 -492.7 657.324 -513.604C684.023 -534.507 574.465 -674.415 601.164 -695.319C627.864 -716.223 737.409 -576.304 764.094 -597.196C790.78 -618.088 681.249 -758.019 707.949 -778.922C734.649 -799.826 844.194 -659.907 870.893 -680.811C897.593 -701.714 788.048 -841.633 814.734 -862.526M-498.703 979.51C-472.017 958.618 -362.473 1098.54 -335.773 1077.63C-309.073 1056.73 -418.632 916.822 -391.932 895.918C-365.233 875.015 -255.702 1014.95 -229.003 994.041C-202.303 973.138 -311.862 833.23 -285.162 812.326C-258.462 791.423 -148.932 931.353 -122.232 910.449C-95.5323 889.546 -205.091 749.638 -178.391 728.734C-151.692 707.83 -42.1614 847.761 -15.4616 826.857C11.2382 805.953 -98.3208 666.046 -71.6353 645.153C-44.9499 624.261 64.6091 764.169 91.3518 743.231C118.094 722.294 8.49252 582.42 35.178 561.527C61.8634 540.635 171.437 680.532 198.065 659.684C224.693 638.836 115.206 498.872 141.977 477.913C168.748 456.953 278.207 596.939 304.893 576.047C331.578 555.155 222.048 415.224 248.733 394.332C275.419 373.439 384.963 513.358 411.663 492.455C438.363 471.551 328.804 331.643 355.489 310.751C382.175 289.859 491.734 429.766 518.434 408.863C545.133 387.959 435.574 248.051 462.274 227.148C488.974 206.244 598.504 346.174 625.204 325.271C651.904 304.367 542.345 164.459 569.045 143.555C595.744 122.652 705.275 262.582 731.974 241.678C758.674 220.775 649.115 80.8668 675.815 59.9632C702.515 39.0596 812.045 178.99 838.745 158.086C865.445 137.183 755.9 -2.73647 782.585 -23.6289C809.271 -44.5213 918.83 95.3865 945.515 74.494C972.201 53.6016 862.67 -86.3286 889.356 -107.221C916.041 -128.113 1025.6 11.7943 1052.3 -9.10931C1079 -30.013 969.441 -169.921 996.141 -190.824C1022.84 -211.728 1132.39 -71.809 1159.07 -92.7014C1185.76 -113.594 1076.23 -253.524 1102.93 -274.428C1129.63 -295.331 1239.17 -155.412 1265.87 -176.316C1292.57 -197.22 1183.02 -337.139 1209.71 -358.031M66.409 1701.31C93.0945 1680.42 202.639 1820.34 229.339 1799.44C256.039 1778.53 146.48 1638.63 173.179 1617.72C199.879 1596.82 309.41 1736.75 336.109 1715.85C362.809 1694.94 253.25 1555.03 279.95 1534.13C306.65 1513.23 416.18 1653.16 442.88 1632.25C469.58 1611.35 360.021 1471.44 386.72 1450.54C413.42 1429.63 522.951 1569.57 549.65 1548.66C576.35 1527.76 466.791 1387.85 493.476 1366.96C520.162 1346.07 629.721 1485.97 656.464 1465.04C683.206 1444.1 573.604 1304.22 600.29 1283.33C626.975 1262.44 736.549 1402.34 763.177 1381.49C789.805 1360.64 680.318 1220.68 707.089 1199.72C733.86 1178.76 843.319 1318.74 870.005 1297.85C896.69 1276.96 787.16 1137.03 813.845 1116.14C840.531 1095.24 950.075 1235.16 976.775 1214.26C1003.47 1193.36 893.916 1053.45 920.601 1032.56C947.287 1011.66 1056.85 1151.57 1083.55 1130.67C1110.25 1109.76 1000.69 969.856 1027.39 948.952C1054.09 928.049 1163.62 1067.98 1190.32 1047.08C1217.02 1026.17 1107.46 886.264 1134.16 865.36C1160.86 844.456 1270.39 984.387 1297.09 963.483C1323.79 942.579 1214.23 802.671 1240.93 781.768C1267.63 760.864 1377.16 900.794 1403.86 879.891C1430.56 858.987 1321.01 719.068 1347.7 698.176C1374.38 677.283 1483.94 817.191 1510.63 796.299C1537.31 775.406 1427.78 635.476 1454.47 614.583C1481.15 593.691 1590.71 733.599 1617.41 712.695C1644.11 691.792 1534.55 551.884 1561.25 530.98C1587.95 510.076 1697.5 649.995 1724.18 629.103C1750.87 608.211 1641.34 468.28 1668.04 447.377C1694.74 426.473 1804.28 566.392 1830.98 545.488C1857.68 524.585 1748.14 384.666 1774.82 363.773M-668.838 762.201C-642.152 741.308 -532.608 881.228 -505.908 860.324C-479.208 839.42 -588.767 699.512 -562.067 678.609C-535.368 657.705 -425.837 797.635 -399.138 776.732C-372.438 755.828 -481.997 615.92 -455.297 595.017C-428.597 574.113 -319.067 714.043 -292.367 693.14C-265.667 672.236 -375.226 532.328 -348.526 511.425C-321.827 490.521 -212.296 630.451 -185.597 609.547C-158.897 588.644 -268.456 448.736 -241.77 427.844C-215.085 406.951 -105.526 546.859 -78.7833 525.922C-52.0406 504.985 -161.642 365.11 -134.957 344.218C-108.272 323.325 1.30173 463.222 27.93 442.374C54.5583 421.527 -54.9292 281.563 -28.158 260.603C-1.38669 239.644 108.072 379.63 134.758 358.737C161.443 337.845 51.9128 197.915 78.5983 177.022C105.284 156.13 214.828 296.049 241.528 275.145C268.228 254.242 158.669 114.334 185.354 93.4414C212.04 72.549 321.599 212.457 348.299 191.553C374.998 170.649 265.439 30.7416 292.139 9.83801C318.839 -11.0656 428.369 128.865 455.069 107.961C481.769 87.0573 372.21 -52.8505 398.91 -73.7542C425.609 -94.6578 535.14 45.2725 561.839 24.3688C588.539 3.4652 478.98 -136.443 505.68 -157.346C532.38 -178.25 641.91 -38.3197 668.61 -59.2233C695.31 -80.127 585.765 -220.046 612.45 -240.938C639.136 -261.831 748.695 -121.923 775.38 -142.816C802.066 -163.708 692.535 -303.638 719.221 -324.531C745.906 -345.423 855.465 -205.515 882.165 -226.419C908.865 -247.323 799.306 -387.23 826.006 -408.134C852.705 -429.038 962.25 -289.119 988.935 -310.011C1015.62 -330.903 906.091 -470.834 932.79 -491.737C959.49 -512.641 1069.03 -372.722 1095.73 -393.626C1122.43 -414.529 1012.89 -554.448 1039.58 -575.341M-103.727 1484C-77.041 1463.11 32.5036 1603.03 59.2034 1582.13C85.9031 1561.22 -23.6558 1421.32 3.04395 1400.41C29.7437 1379.51 139.274 1519.44 165.974 1498.54C192.674 1477.63 83.1146 1337.72 109.814 1316.82C136.514 1295.92 246.045 1435.85 272.744 1414.94C299.444 1394.04 189.885 1254.13 216.585 1233.23C243.285 1212.32 352.815 1352.25 379.515 1331.35C406.214 1310.45 296.655 1170.54 323.341 1149.65C350.026 1128.75 459.585 1268.66 486.328 1247.73C513.071 1226.79 403.469 1086.91 430.154 1066.02C456.84 1045.13 566.413 1185.03 593.041 1164.18C619.67 1143.33 510.182 1003.37 536.953 982.407C563.725 961.447 673.183 1101.43 699.869 1080.54C726.554 1059.65 617.024 919.718 643.709 898.826C670.395 877.933 779.94 1017.85 806.639 996.949C833.339 976.045 723.78 836.137 750.466 815.245C777.151 794.352 886.71 934.26 913.41 913.356C940.11 892.453 830.551 752.545 857.25 731.641C883.95 710.738 993.481 850.668 1020.18 829.764C1046.88 808.861 937.321 668.953 964.021 648.049C990.721 627.146 1100.25 767.076 1126.95 746.172C1153.65 725.269 1044.09 585.361 1070.79 564.457C1097.49 543.553 1207.02 683.484 1233.72 662.58C1260.42 641.676 1150.88 501.757 1177.56 480.865C1204.25 459.972 1313.81 599.88 1340.49 578.988C1367.18 558.095 1257.65 418.165 1284.33 397.273C1311.02 376.38 1420.58 516.288 1447.28 495.385C1473.98 474.481 1364.42 334.573 1391.12 313.669C1417.82 292.766 1527.36 432.685 1554.05 411.792C1580.73 390.9 1471.2 250.97 1497.9 230.066C1524.6 209.163 1634.15 349.081 1660.85 328.178C1687.55 307.274 1578 167.355 1604.69 146.463M-273.863 1266.69C-247.177 1245.8 -137.632 1385.72 -110.933 1364.82C-84.2329 1343.91 -193.792 1204.01 -167.092 1183.1C-140.392 1162.2 -30.862 1302.13 -4.16223 1281.23C22.5375 1260.32 -87.0214 1120.41 -60.3217 1099.51C-33.6219 1078.61 75.9085 1218.54 102.608 1197.63C129.308 1176.73 19.749 1036.82 46.4488 1015.92C73.1486 995.014 182.679 1134.94 209.379 1114.04C236.078 1093.14 126.519 953.229 153.205 932.337C179.89 911.444 289.449 1051.35 316.192 1030.42C342.935 1009.48 233.333 869.604 260.018 848.711C286.704 827.819 396.277 967.715 422.905 946.868C449.534 926.02 340.046 786.056 366.817 765.097C393.589 744.137 503.047 884.123 529.733 863.231C556.418 842.338 446.888 702.408 473.573 681.516C500.259 660.623 609.804 800.542 636.503 779.639C663.203 758.735 553.644 618.827 580.33 597.935C607.015 577.042 716.574 716.95 743.274 696.046C769.974 675.143 660.414 535.235 687.114 514.331C713.814 493.428 823.344 633.358 850.044 612.454C876.744 591.551 767.185 451.643 793.885 430.739C820.585 409.835 930.115 549.766 956.815 528.862C983.514 507.959 873.956 368.051 900.655 347.147C927.355 326.243 1036.89 466.174 1063.59 445.27C1090.28 424.366 980.74 284.447 1007.43 263.555C1034.11 242.662 1143.67 382.57 1170.36 361.678C1197.04 340.785 1087.51 200.855 1114.2 179.963C1140.88 159.07 1250.44 298.978 1277.14 278.074C1303.84 257.171 1194.28 117.263 1220.98 96.3594C1247.68 75.4557 1357.23 215.375 1383.91 194.482C1410.6 173.59 1301.07 33.6597 1327.77 12.7561C1354.47 -8.14753 1464.01 131.771 1490.71 110.868C1517.41 89.964 1407.86 -49.9548 1434.55 -70.8473M291.25 1988.5C317.935 1967.61 427.48 2107.53 454.18 2086.62C480.879 2065.72 371.321 1925.81 398.02 1904.91C424.72 1884 534.25 2023.93 560.95 2003.03C587.65 1982.13 478.091 1842.22 504.791 1821.31C531.49 1800.41 641.021 1940.34 667.721 1919.44C694.42 1898.53 584.861 1758.63 611.561 1737.72C638.261 1716.82 747.791 1856.75 774.491 1835.85C801.191 1814.94 691.632 1675.03 718.317 1654.14C745.003 1633.25 854.562 1773.16 881.304 1752.22C908.047 1731.28 798.445 1591.41 825.131 1570.52C851.816 1549.62 961.389 1689.52 988.018 1668.67C1014.65 1647.83 905.158 1507.86 931.93 1486.9C958.701 1465.94 1068.16 1605.93 1094.85 1585.04C1121.53 1564.14 1012 1424.21 1038.69 1403.32C1065.37 1382.43 1174.92 1522.35 1201.62 1501.44C1228.32 1480.54 1118.76 1340.63 1145.44 1319.74C1172.13 1298.85 1281.69 1438.76 1308.39 1417.85C1335.09 1396.95 1225.53 1257.04 1252.23 1236.14C1278.93 1215.23 1388.46 1355.16 1415.16 1334.26C1441.86 1313.36 1332.3 1173.45 1359 1152.54C1385.7 1131.64 1495.23 1271.57 1521.93 1250.67C1548.63 1229.76 1439.07 1089.86 1465.77 1068.95C1492.47 1048.05 1602 1187.98 1628.7 1167.07C1655.4 1146.17 1545.85 1006.25 1572.54 985.36C1599.22 964.467 1708.78 1104.38 1735.47 1083.48C1762.15 1062.59 1652.62 922.66 1679.31 901.768C1705.99 880.875 1815.55 1020.78 1842.25 999.88C1868.95 978.976 1759.39 839.068 1786.09 818.164C1812.79 797.261 1922.34 937.18 1949.02 916.287C1975.71 895.395 1866.18 755.465 1892.88 734.561C1919.58 713.658 2029.12 853.576 2055.82 832.673C2082.52 811.769 1972.98 671.85 1999.66 650.958M-784.134 614.935C-757.448 594.043 -647.903 733.962 -621.204 713.058C-594.504 692.154 -704.063 552.247 -677.363 531.343C-650.663 510.439 -541.133 650.37 -514.433 629.466C-487.734 608.562 -597.292 468.654 -570.593 447.751C-543.893 426.847 -434.363 566.777 -407.663 545.874C-380.963 524.97 -490.522 385.062 -463.822 364.159C-437.123 343.255 -327.592 483.185 -300.892 462.282C-274.193 441.378 -383.752 301.47 -357.066 280.578C-330.381 259.685 -220.822 399.593 -194.079 378.656C-167.336 357.719 -276.938 217.844 -250.253 196.952C-223.567 176.059 -113.994 315.956 -87.3658 295.109C-60.7375 274.261 -170.225 134.297 -143.454 113.337C-116.682 92.3778 -7.22361 232.364 19.4619 211.472C46.1473 190.579 -63.383 50.6488 -36.6976 29.7564C-10.0121 8.86397 99.5325 148.783 126.232 127.879C152.932 106.976 43.3731 -32.9321 70.0585 -53.8245C96.744 -74.717 206.303 65.1909 233.003 44.2872C259.703 23.3836 150.144 -116.524 176.843 -137.428C203.543 -158.331 313.073 -18.4013 339.773 -39.3049C366.473 -60.2086 256.914 -200.116 283.614 -221.02C310.314 -241.924 419.844 -101.993 446.544 -122.897C473.243 -143.801 363.685 -283.709 390.384 -304.612C417.084 -325.516 526.614 -185.586 553.314 -206.489C580.014 -227.393 470.469 -367.312 497.155 -388.204C523.84 -409.097 633.399 -269.189 660.085 -290.081C686.77 -310.974 577.24 -450.904 603.925 -471.796C630.611 -492.689 740.17 -352.781 766.869 -373.685C793.569 -394.588 684.01 -534.496 710.71 -555.4C737.41 -576.304 846.954 -436.384 873.64 -457.277C900.325 -478.169 790.795 -618.1 817.495 -639.003C844.194 -659.907 953.739 -519.988 980.439 -540.891C1007.14 -561.795 897.594 -701.714 924.279 -722.607M-389.158 1119.43C-362.472 1098.54 -252.928 1238.46 -226.228 1217.55C-199.528 1196.65 -309.087 1056.74 -282.387 1035.84C-255.688 1014.93 -146.157 1154.86 -119.457 1133.96C-92.7577 1113.06 -202.317 973.149 -175.617 952.245C-148.917 931.342 -39.3868 1071.27 -12.687 1050.37C14.0127 1029.46 -95.5463 889.557 -68.8465 868.653C-42.1467 847.749 67.3836 987.68 94.0834 966.776C120.783 945.872 11.2242 805.965 37.9097 785.072C64.5951 764.18 174.154 904.087 200.897 883.15C227.639 862.213 118.038 722.339 144.723 701.446C171.408 680.554 280.982 820.451 307.61 799.603C334.238 778.755 224.751 638.791 251.522 617.832C278.293 596.872 387.752 736.858 414.438 715.966C441.123 695.074 331.593 555.143 358.278 534.251C384.964 513.358 494.508 653.278 521.208 632.374C547.908 611.47 438.349 471.562 465.034 450.67C491.72 429.777 601.279 569.685 627.979 548.782C654.678 527.878 545.119 387.97 571.819 367.067C598.519 346.163 708.049 486.093 734.749 465.19C761.449 444.286 651.89 304.378 678.589 283.474C705.289 262.571 814.82 402.501 841.519 381.597C868.219 360.694 758.66 220.786 785.36 199.882C812.06 178.979 921.59 318.909 948.29 298.005C974.99 277.102 865.445 137.182 892.13 116.29C918.816 95.3976 1028.37 235.306 1055.06 214.413C1081.75 193.521 972.215 53.5904 998.901 32.698C1025.59 11.8056 1135.15 151.713 1161.84 130.81C1188.54 109.906 1078.99 -30.0018 1105.69 -50.9055C1132.39 -71.8091 1241.93 68.11 1268.62 47.2176C1295.3 26.3251 1185.77 -113.605 1212.47 -134.509C1239.17 -155.412 1348.71 -15.4934 1375.41 -36.397C1402.11 -57.3007 1292.57 -197.22 1319.26 -218.112M175.953 1841.23C202.639 1820.34 312.184 1960.26 338.883 1939.36C365.583 1918.45 256.024 1778.54 282.724 1757.64C309.424 1736.74 418.954 1876.67 445.654 1855.76C472.354 1834.86 362.795 1694.95 389.494 1674.05C416.194 1653.15 525.725 1793.08 552.424 1772.17C579.124 1751.27 469.565 1611.36 496.265 1590.46C522.965 1569.55 632.495 1709.48 659.195 1688.58C685.894 1667.68 576.336 1527.77 603.021 1506.88C629.706 1485.98 739.265 1625.89 766.008 1604.95C792.751 1584.02 683.149 1444.14 709.834 1423.25C736.52 1402.36 846.093 1542.25 872.721 1521.41C899.35 1500.56 789.862 1360.6 816.633 1339.64C843.405 1318.68 952.863 1458.66 979.549 1437.77C1006.23 1416.88 896.704 1276.95 923.39 1256.05C950.075 1235.16 1059.62 1375.08 1086.32 1354.18C1113.02 1333.27 1003.46 1193.37 1030.15 1172.47C1056.83 1151.58 1166.39 1291.49 1193.09 1270.59C1219.79 1249.68 1110.23 1109.77 1136.93 1088.87C1163.63 1067.97 1273.16 1207.9 1299.86 1186.99C1326.56 1166.09 1217 1026.18 1243.7 1005.28C1270.4 984.375 1379.93 1124.3 1406.63 1103.4C1433.33 1082.5 1323.77 942.59 1350.47 921.686C1377.17 900.782 1486.7 1040.71 1513.4 1019.81C1540.1 998.905 1430.56 858.986 1457.24 838.094C1483.93 817.201 1593.49 957.109 1620.17 936.217C1646.86 915.324 1537.33 775.394 1564.01 754.502C1590.7 733.609 1700.26 873.517 1726.96 852.614C1753.66 831.71 1644.1 691.802 1670.8 670.898C1697.5 649.995 1807.04 789.914 1833.73 769.021C1860.41 748.129 1750.88 608.199 1777.58 587.295C1804.28 566.392 1913.83 706.31 1940.53 685.407C1967.23 664.503 1857.68 524.584 1884.37 503.692M-559.293 902.12C-532.608 881.227 -423.063 1021.15 -396.363 1000.24C-369.664 979.339 -479.223 839.431 -452.523 818.527C-425.823 797.624 -316.293 937.554 -289.593 916.65C-262.893 895.747 -372.452 755.839 -345.752 734.935C-319.053 714.032 -209.522 853.962 -182.823 833.058C-156.123 812.154 -265.682 672.247 -238.982 651.343C-212.282 630.439 -102.752 770.37 -76.0521 749.466C-49.3524 728.562 -158.911 588.655 -132.226 567.762C-105.54 546.87 4.01857 686.777 30.7612 665.84C57.5039 644.903 -52.098 505.029 -25.4125 484.136C1.27292 463.244 110.846 603.141 137.474 582.293C164.103 561.445 54.6152 421.481 81.3865 400.522C108.158 379.562 217.617 519.548 244.302 498.656C270.988 477.763 161.457 337.833 188.143 316.941C214.828 296.048 324.373 435.967 351.073 415.064C377.772 394.16 268.213 254.252 294.899 233.36C321.584 212.467 431.143 352.375 457.843 331.472C484.543 310.568 374.984 170.66 401.683 149.757C428.383 128.853 537.914 268.783 564.613 247.88C591.313 226.976 481.754 87.068 508.454 66.1644C535.154 45.2607 644.684 185.191 671.384 164.287C698.084 143.384 588.525 3.47578 615.224 -17.4279C641.924 -38.3315 751.455 101.599 778.154 80.6952C804.854 59.7916 695.309 -80.1275 721.995 -101.02C748.68 -121.912 858.239 17.9954 884.925 -2.89703C911.61 -23.7895 802.08 -163.72 828.765 -184.612C855.451 -205.505 965.01 -65.5967 991.709 -86.5004C1018.41 -107.404 908.85 -247.312 935.55 -268.216C962.25 -289.119 1071.79 -149.2 1098.48 -170.092C1125.17 -190.985 1015.63 -330.915 1042.33 -351.819C1069.03 -372.722 1178.58 -232.803 1205.28 -253.707C1231.98 -274.611 1122.43 -414.53 1149.12 -435.422M5.81799 1623.93C32.5035 1603.03 142.048 1742.95 168.748 1722.05C195.448 1701.14 85.8886 1561.24 112.588 1540.33C139.288 1519.43 248.819 1659.36 275.518 1638.46C302.218 1617.55 192.659 1477.64 219.359 1456.74C246.059 1435.84 355.589 1575.77 382.289 1554.86C408.988 1533.96 299.43 1394.05 326.129 1373.15C352.829 1352.25 462.359 1492.18 489.059 1471.27C515.759 1450.37 406.2 1310.46 432.885 1289.57C459.571 1268.68 569.13 1408.58 595.873 1387.65C622.615 1366.71 513.013 1226.83 539.699 1205.94C566.384 1185.05 675.958 1324.95 702.586 1304.1C729.214 1283.25 619.727 1143.29 646.498 1122.33C673.269 1101.37 782.728 1241.35 809.413 1220.46C836.099 1199.57 726.569 1059.64 753.254 1038.75C779.939 1017.85 889.484 1157.77 916.184 1136.87C942.884 1115.97 833.325 976.058 860.01 955.166C886.696 934.273 996.255 1074.18 1022.95 1053.28C1049.65 1032.37 940.095 892.466 966.795 871.562C993.495 850.659 1103.03 990.589 1129.72 969.685C1156.42 948.782 1046.87 808.874 1073.57 787.97C1100.27 767.066 1209.8 906.997 1236.5 886.093C1263.19 865.189 1153.64 725.281 1180.34 704.378C1207.04 683.474 1316.57 823.404 1343.27 802.501C1369.97 781.597 1260.42 641.678 1287.11 620.786C1313.79 599.893 1423.35 739.801 1450.04 718.909C1476.72 698.016 1367.19 558.086 1393.88 537.194C1420.56 516.301 1530.12 656.209 1556.82 635.305C1583.52 614.402 1473.96 474.494 1500.66 453.59C1527.36 432.687 1636.91 572.606 1663.59 551.713C1690.28 530.821 1580.75 390.891 1607.45 369.987C1634.15 349.083 1743.69 489.002 1770.39 468.099C1797.09 447.195 1687.55 307.276 1714.23 286.384M-164.317 1406.61C-137.632 1385.72 -28.087 1525.64 -1.38721 1504.74C25.3126 1483.83 -84.2464 1343.92 -57.5466 1323.02C-30.8469 1302.12 78.6835 1442.05 105.383 1421.14C132.083 1400.24 22.5241 1260.33 49.2238 1239.43C75.9236 1218.53 185.454 1358.46 212.154 1337.55C238.853 1316.65 129.295 1176.74 155.994 1155.84C182.694 1134.93 292.224 1274.86 318.924 1253.96C345.624 1233.06 236.065 1093.15 262.75 1072.26C289.436 1051.36 398.995 1191.27 425.738 1170.33C452.48 1149.4 342.878 1009.52 369.564 988.63C396.249 967.738 505.822 1107.63 532.451 1086.79C559.079 1065.94 449.592 925.975 476.363 905.016C503.134 884.056 612.593 1024.04 639.278 1003.15C665.964 982.257 556.434 842.327 583.119 821.435C609.804 800.542 719.349 940.461 746.049 919.558C772.749 898.654 663.19 758.746 689.875 737.854C716.561 716.961 826.12 856.869 852.819 835.965C879.519 815.062 769.96 675.154 796.66 654.25C823.36 633.347 932.89 773.277 959.59 752.373C986.289 731.47 876.731 591.562 903.43 570.658C930.13 549.755 1039.66 689.685 1066.36 668.781C1093.06 647.878 983.501 507.97 1010.2 487.066C1036.9 466.162 1146.43 606.093 1173.13 585.189C1199.83 564.285 1090.29 424.366 1116.97 403.474C1143.66 382.581 1253.22 522.489 1279.9 501.597C1306.59 480.704 1197.06 340.774 1223.74 319.882C1250.43 298.989 1359.99 438.897 1386.69 417.994C1413.39 397.09 1303.83 257.182 1330.53 236.278C1357.23 215.375 1466.77 355.294 1493.46 334.401C1520.14 313.509 1410.61 173.579 1437.31 152.675C1464.01 131.772 1573.56 271.69 1600.26 250.787C1626.96 229.883 1517.41 89.9642 1544.1 69.0718M400.795 2128.42C427.48 2107.53 537.025 2247.45 563.725 2226.54C590.424 2205.64 480.865 2065.73 507.565 2044.83C534.265 2023.92 643.795 2163.85 670.495 2142.95C697.195 2122.05 587.636 1982.14 614.336 1961.24C641.035 1940.33 750.566 2080.26 777.266 2059.36C803.965 2038.46 694.406 1898.55 721.106 1877.64C747.806 1856.74 857.336 1996.67 884.036 1975.77C910.736 1954.86 801.177 1814.96 827.862 1794.06C854.548 1773.17 964.107 1913.08 990.849 1892.14C1017.59 1871.2 907.99 1731.33 934.676 1710.44C961.361 1689.54 1070.93 1829.44 1097.56 1808.59C1124.19 1787.75 1014.7 1647.78 1041.47 1626.82C1068.25 1605.86 1177.7 1745.85 1204.39 1724.96C1231.08 1704.06 1121.55 1564.13 1148.23 1543.24C1174.92 1522.35 1284.46 1662.27 1311.16 1641.36C1337.86 1620.46 1228.3 1480.55 1254.99 1459.66C1281.67 1438.77 1391.23 1578.68 1417.93 1557.77C1444.63 1536.87 1335.07 1396.96 1361.77 1376.06C1388.47 1355.15 1498 1495.08 1524.7 1474.18C1551.4 1453.28 1441.84 1313.37 1468.54 1292.47C1495.24 1271.56 1604.77 1411.49 1631.47 1390.59C1658.17 1369.68 1548.61 1229.78 1575.31 1208.87C1602.01 1187.97 1711.54 1327.9 1738.24 1307C1764.94 1286.09 1655.4 1146.17 1682.08 1125.28C1708.77 1104.39 1818.33 1244.3 1845.01 1223.4C1871.7 1202.51 1762.17 1062.58 1788.85 1041.69C1815.54 1020.8 1925.1 1160.7 1951.8 1139.8C1978.5 1118.9 1868.94 978.989 1895.64 958.085C1922.34 937.182 2031.88 1077.1 2058.57 1056.21C2085.25 1035.32 1975.72 895.386 2002.42 874.482C2029.12 853.578 2138.67 993.497 2165.37 972.594C2192.07 951.69 2082.52 811.771 2109.21 790.879" stroke="url(#paint0_linear_36_1259)" stroke-miterlimit="10"/>
<defs>
<linearGradient id="paint0_linear_36_1259" x1="1261" y1="1996.5" x2="440.5" y2="0.500014" gradientUnits="userSpaceOnUse">
<stop stop-color="#EBE9FE"/>
<stop offset="1" stop-color="#EBE9FE" stop-opacity="0"/>
</linearGradient>
</defs>
</svg>
